<svg width="28" height="30" viewBox="0 0 28 30" fill="none" xmlns="http://www.w3.org/2000/svg">
<path d="M26.374 23.9814C25.7003 22.3856 24.7226 20.9361 23.4954 19.7135C22.272 18.4875 20.8227 17.51 19.2276 16.835C19.2133 16.8278 19.199 16.8243 19.1847 16.8171C21.4097 15.21 22.8561 12.5921 22.8561 9.63855C22.8561 4.74569 18.8919 0.781403 13.999 0.781403C9.10614 0.781403 5.14185 4.74569 5.14185 9.63855C5.14185 12.5921 6.58828 15.21 8.81328 16.8207C8.799 16.8278 8.78471 16.8314 8.77043 16.8385C7.17043 17.5135 5.73471 18.4814 4.50257 19.7171C3.27653 20.9406 2.29901 22.3899 1.624 23.985C0.960861 25.5466 0.603217 27.2209 0.570425 28.9171C0.569471 28.9552 0.576157 28.9932 0.590088 29.0287C0.604019 29.0641 0.624914 29.0965 0.65154 29.1238C0.678167 29.1511 0.709987 29.1728 0.745125 29.1876C0.780264 29.2024 0.81801 29.21 0.856139 29.21H2.999C3.15614 29.21 3.28114 29.085 3.28471 28.9314C3.35614 26.1743 4.46328 23.5921 6.42043 21.635C8.44543 19.61 11.1347 18.4957 13.999 18.4957C16.8633 18.4957 19.5526 19.61 21.5776 21.635C23.5347 23.5921 24.6419 26.1743 24.7133 28.9314C24.7169 29.0886 24.8419 29.21 24.999 29.21H27.1419C27.18 29.21 27.2177 29.2024 27.2529 29.1876C27.288 29.1728 27.3198 29.1511 27.3465 29.1238C27.3731 29.0965 27.394 29.0641 27.4079 29.0287C27.4218 28.9932 27.4285 28.9552 27.4276 28.9171C27.3919 27.21 27.0383 25.5493 26.374 23.9814ZM13.999 15.7814C12.3597 15.7814 10.8169 15.1421 9.65614 13.9814C8.49543 12.8207 7.85614 11.2778 7.85614 9.63855C7.85614 7.99926 8.49543 6.4564 9.65614 5.29569C10.8169 4.13497 12.3597 3.49569 13.999 3.49569C15.6383 3.49569 17.1811 4.13497 18.3419 5.29569C19.5026 6.4564 20.1419 7.99926 20.1419 9.63855C20.1419 11.2778 19.5026 12.8207 18.3419 13.9814C17.1811 15.1421 15.6383 15.7814 13.999 15.7814Z" fill="white"/>
</svg>
